<svg width="963" height="169" viewBox="0 0 963 169" fill="none" xmlns="http://www.w3.org/2000/svg">
<path d="M496.542 21.362H466.169L450.982 47.662L466.169 73.962H496.542L511.721 47.662L496.542 21.362Z" fill="url(#paint0_linear_1_1803)"/>
<path d="M496.542 88.288H466.169L450.982 114.588L466.169 140.888H496.542L511.721 114.588L496.542 88.288Z" fill="url(#paint1_linear_1_1803)"/>
<path d="M118.379 104.713H79.864C78.2692 104.713 76.7398 105.347 75.6122 106.475C74.4845 107.603 73.851 109.132 73.851 110.727V115.921H186.494V168.581H0.494019L0.576019 104.713C0.576019 99.4799 1.60679 94.2981 3.60947 89.4634C5.61214 84.6287 8.54751 80.2358 12.248 76.5355C15.9484 72.8353 20.3414 69.9001 25.1762 67.8977C30.0111 65.8952 35.1929 64.8648 40.426 64.865H94.445V64.873C105.976 64.921 115.793 65.256 115.793 58.846C115.793 52.436 105.22 53.174 95.702 53.174H3.74203V0.512024C3.74203 0.512024 79.216 0.549011 115.742 0.549011C152.268 0.549011 188.659 7.88101 188.659 52.614C188.659 97.347 158.723 104.713 118.379 104.713Z" fill="white"/>
<path d="M342.255 104.713H303.74C302.145 104.713 300.616 105.347 299.488 106.475C298.361 107.603 297.727 109.132 297.727 110.727V115.921H410.37V168.581H224.37L224.452 104.713C224.452 99.48 225.483 94.2982 227.486 89.4635C229.488 84.6289 232.424 80.236 236.124 76.5358C239.825 72.8356 244.218 69.9004 249.052 67.8979C253.887 65.8955 259.069 64.8649 264.302 64.865H318.321V64.873C329.852 64.921 339.669 65.256 339.669 58.846C339.669 52.436 329.096 53.174 319.578 53.174H227.618V0.512024C227.618 0.512024 303.092 0.549011 339.618 0.549011C376.144 0.549011 412.535 7.88101 412.535 52.614C412.535 97.347 382.599 104.713 342.255 104.713Z" fill="white"/>
<path d="M465.685 74.186C465.739 74.2797 465.817 74.3575 465.91 74.4116C466.004 74.4657 466.11 74.4941 466.218 74.494H496.493C496.601 74.4939 496.707 74.4654 496.801 74.4114C496.894 74.3573 496.972 74.2796 497.026 74.186L512.155 47.974C512.209 47.8804 512.238 47.7741 512.238 47.666C512.238 47.5579 512.209 47.4516 512.155 47.358L497.031 21.14C496.977 21.0464 496.899 20.9687 496.806 20.9146C496.712 20.8606 496.606 20.8321 496.498 20.832H466.218C466.11 20.8319 466.004 20.8603 465.91 20.9144C465.817 20.9685 465.739 21.0463 465.685 21.14L450.548 47.358C450.494 47.4516 450.465 47.5579 450.465 47.666C450.465 47.7741 450.494 47.8804 450.548 47.974L465.685 74.186ZM452.147 48.286H481L495.426 73.266H466.573L452.147 48.286ZM496.493 72.651L482.066 47.667L496.493 22.68L510.911 47.667L496.493 72.651ZM466.573 22.067H495.426L481 47.054H452.147L466.573 22.067Z" fill="white"/>
<path d="M497.019 88.067C496.965 87.9733 496.887 87.8955 496.793 87.8414C496.7 87.7873 496.593 87.7589 496.485 87.759H466.211C466.103 87.7589 465.997 87.7873 465.903 87.8414C465.81 87.8955 465.732 87.9733 465.678 88.067L450.548 114.286C450.494 114.38 450.465 114.486 450.465 114.594C450.465 114.702 450.494 114.808 450.548 114.902L465.678 141.113C465.732 141.207 465.81 141.285 465.903 141.339C465.997 141.393 466.103 141.421 466.211 141.421H496.485C496.593 141.421 496.7 141.393 496.793 141.339C496.887 141.285 496.965 141.207 497.019 141.113L512.155 114.902C512.209 114.808 512.238 114.702 512.238 114.594C512.238 114.486 512.209 114.38 512.155 114.286L497.019 88.067ZM510.556 113.978H481.704L467.277 88.99H496.131L510.556 113.978ZM466.211 89.605L480.638 114.593L466.211 139.573L451.792 114.593L466.211 89.605ZM496.131 140.188H467.277L481.704 115.208H510.556L496.131 140.188Z" fill="white"/>
<path d="M668.111 104.713H629.596C628.001 104.713 626.472 105.347 625.344 106.475C624.216 107.603 623.583 109.132 623.583 110.727V115.921H736.231V168.581H550.231L550.313 104.713C550.313 99.48 551.344 94.2982 553.347 89.4635C555.35 84.6289 558.285 80.236 561.985 76.5358C565.686 72.8356 570.079 69.9004 574.913 67.8979C579.748 65.8955 584.93 64.8649 590.163 64.865H644.182V64.873C655.713 64.921 665.53 65.256 665.53 58.846C665.53 52.436 654.958 53.174 645.439 53.174H553.481V0.512024C553.481 0.512024 628.956 0.549011 665.481 0.549011C702.006 0.549011 738.398 7.88101 738.398 52.614C738.398 97.347 708.455 104.713 668.111 104.713Z" fill="white"/>
<path d="M891.988 104.713H853.472C851.877 104.713 850.348 105.347 849.22 106.475C848.093 107.603 847.459 109.132 847.459 110.727V115.921H960.102V168.581H774.102L774.184 104.713C774.185 94.1453 778.383 84.0106 785.856 76.5381C793.329 69.0657 803.463 64.8675 814.031 64.867H868.05V64.875C879.582 64.923 889.398 65.258 889.398 58.848C889.398 52.438 878.826 53.176 869.307 53.176H777.349V0.512024C777.349 0.512024 852.824 0.549011 889.349 0.549011C925.874 0.549011 962.266 7.88101 962.266 52.614C962.266 97.347 932.331 104.713 891.988 104.713Z" fill="white"/>
<defs>
<linearGradient id="paint0_linear_1_1803" x1="450.982" y1="47.662" x2="511.721" y2="47.662" gradientUnits="userSpaceOnUse">
<stop stop-color="#FF4454"/>
<stop offset="0.999" stop-color="#FF457A"/>
</linearGradient>
<linearGradient id="paint1_linear_1_1803" x1="450.982" y1="114.588" x2="511.721" y2="114.588" gradientUnits="userSpaceOnUse">
<stop stop-color="#FF4454"/>
<stop offset="0.999" stop-color="#FF457A"/>
</linearGradient>
</defs>
</svg>
